<svg xmlns="http://www.w3.org/2000/svg" width="16" height="16" viewBox="0 0 16 16">
  <path d="M10.15 15h-4.3c-2.676-.008-4.843-2.175-4.85-4.851v-4.3C1.009 3.174 3.176 1.008 5.851 1h4.3c2.675.009 4.841 2.176 4.849 4.851v4.3c-.009 2.675-2.175 4.84-4.85 4.849zM5.825 8l1.11 3.5c.088.296.36.499.669.5h.021c.3-.006.564-.2.659-.485l.329-1.209.878-3.217.626 2.074c.09.286.356.48.656.479h1.337c.231.001.446-.12.565-.319a.6634.6634 0 0 0 0-.685.66523.66523 0 0 0-.565-.319h-.794l-1.26-3.844c-.098-.286-.367-.479-.67-.479h-.009c-.302.004-.569.2-.663.487L7.649 8.751c-.008.035-.039.059-.074.061-.035.001-.067-.021-.079-.054l-.908-2.581c-.079-.273-.317-.469-.6-.493-.027-.001-.053-.001-.08 0-.257 0-.494.14-.618.365l-.643 1.209-.565 1.061-.011.022v.005l-.365-.022a.29437.29437 0 0 0-.042 0c-.231.001-.445.122-.565.319-.127.21-.127.474 0 .684.12.197.334.318.565.319h.886c.246 0 .453-.173.693-.578.023-.029.043-.061.06-.094l.524-.968L5.825 8z"/>
</svg>