<svg xmlns="http://www.w3.org/2000/svg" width="16" height="16" viewBox="0 0 16 16">
  <path d="M5.85 15c-2.678-.003-4.847-2.173-4.85-4.851v-4.3C1.005 3.172 3.174 1.004 5.851 1h4.3c2.677.004 4.846 2.174 4.849 4.851v4.3c-.004 2.677-2.173 4.845-4.85 4.849h-4.3zM3.5 10.146c.003 1.297 1.053 2.349 2.35 2.354h4.3c1.297-.003 2.349-1.052 2.354-2.349v-.6h-1.61c-.104-.001-.207-.025-.3-.072-.195-.072-.345-.229-.409-.427l-.613-2.03-1.182 4.331c-.094.283-.359.474-.657.474h-.008c-.301-.004-.565-.201-.654-.489L5.985 7.914l-.514.949c-.024.046-.054.088-.088.127-.124.194-.338.311-.568.31H3.5v.846zm2.636-4.5c.277.024.511.215.589.482l.888 2.525c.011.032.043.054.077.052.034-.002.063-.026.072-.059l1.041-4.175c.093-.283.356-.475.654-.477.298-.002.564.187.66.469l1.224 3.731H12.5V5.848c-.006-1.295-1.054-2.343-2.349-2.348h-4.3c-1.297.003-2.349 1.052-2.354 2.349v2.1h.918l1.036-1.945c.12-.219.35-.356.6-.358.028 0 .057.002.085.005v-.005z"/>
</svg>